<svg width="40" height="40" viewBox="0 0 40 40" fill="none" xmlns="http://www.w3.org/2000/svg">
<path d="M7.6251 16.3632C8.19727 20.9647 7.47813 28.2359 7.47813 28.2359C7.47813 28.2359 5.20596 21.6611 4.69049 17.2743C4.16264 12.782 4.90234 5.69385 4.90234 5.69385C4.90234 5.69385 7.09448 12.0959 7.6251 16.3632Z" fill="#00587D"/>
<path d="M22.8345 32.5985C18.2025 32.8106 11.0094 31.5273 11.0094 31.5273C11.0094 31.5273 17.7412 29.7741 22.1549 29.6019C26.6746 29.4255 33.6836 30.7151 33.6836 30.7151C33.6836 30.7151 27.1302 32.4019 22.8345 32.5985Z" fill="#00587D"/>
<path d="M15.4257 9.32421C15.81 13.9452 14.8693 20.4151 14.8693 20.4151C14.8693 20.4151 13.1295 15.4686 12.7931 11.0644C12.4486 6.55437 13.6641 0.540527 13.6641 0.540527C13.6641 0.540527 15.0692 5.03881 15.4257 9.32421Z" fill="#00587D"/>
<path d="M28.8139 25.8179C24.1804 25.6412 17.8715 23.9258 17.8715 23.9258C17.8715 23.9258 22.9919 22.7963 27.4045 22.9944C31.9231 23.1972 37.7461 25.1302 37.7461 25.1302C37.7461 25.1302 33.111 25.9817 28.8139 25.8179Z" fill="#00587D"/>
<path d="M22.4458 7.05771C22.1978 11.688 21.2182 14.5947 21.2182 14.5947C21.2182 14.5947 20.529 11.3615 20.795 6.95252C21.0674 2.43754 22.1523 0 22.1523 0C22.1523 0 22.6758 2.76367 22.4458 7.05771Z" fill="#00587D"/>
<path d="M31.3609 18.906C26.7273 18.7314 23.8055 17.798 23.8055 17.798C23.8055 17.798 27.0273 17.0577 31.4399 17.2537C35.9587 17.4545 38.4131 18.5007 38.4131 18.5007C38.4131 18.5007 35.6581 19.0679 31.3609 18.906Z" fill="#00587D"/>
<path d="M29.4534 5.05378C29.1885 6.19754 28.1866 9.01443 28.1866 9.01443C28.1866 9.01443 27.8361 6.47499 28.2951 4.52057C28.5835 3.29241 29.5859 1.18787 29.5859 1.18787C29.5859 1.18787 29.6527 4.19375 29.4534 5.05378Z" fill="#00587D"/>
<path d="M34.3568 12.697C33.1886 12.5802 30.2669 11.9457 30.2669 11.9457C30.2669 11.9457 32.7409 11.2742 34.7379 11.4801C35.9928 11.6095 38.208 12.3353 38.208 12.3353C38.208 12.3353 35.2352 12.7849 34.3568 12.697Z" fill="#00587D"/>
<path d="M15.9397 21.0968C9.85796 27.2111 2.20835 38.3914 2.20835 38.3914C2.20835 38.3914 11.1617 28.733 17.0208 22.6729C24.2225 15.2241 28.5334 11.107 28.5334 11.107C28.5334 11.107 24.25 12.742 15.9397 21.0968Z" fill="#00587D"/>
</svg>
