<svg width="48" height="48" viewBox="0 0 48 48" fill="none" xmlns="http://www.w3.org/2000/svg">
<path d="M26.8125 16.5H32.4375L26.8125 22.125H32.4375" stroke="#343D3F" stroke-width="3" stroke-linecap="round" stroke-linejoin="round"/>
<path d="M35.25 5.25H42.75L35.25 12.75H42.75" stroke="#343D3F" stroke-width="3" stroke-linecap="round" stroke-linejoin="round"/>
<path d="M41.3438 24C41.3438 33.5786 33.5786 41.3438 24 41.3438V44.1562C35.1321 44.1562 44.1562 35.1321 44.1562 24H41.3438ZM24 41.3438C14.4213 41.3438 6.65625 33.5786 6.65625 24H3.84375C3.84375 35.1321 12.868 44.1562 24 44.1562V41.3438ZM6.65625 24C6.65625 14.4213 14.4213 6.65625 24 6.65625V3.84375C12.868 3.84375 3.84375 12.868 3.84375 24H6.65625ZM30.5625 28.2188C24.6082 28.2188 19.7812 23.3918 19.7812 17.4375H16.9688C16.9688 24.9452 23.0548 31.0312 30.5625 31.0312V28.2188ZM39.7974 23.0044C37.9072 26.1324 34.4779 28.2188 30.5625 28.2188V31.0312C35.5029 31.0312 39.8263 28.3948 42.2048 24.4588L39.7974 23.0044ZM19.7812 17.4375C19.7812 13.5222 21.8676 10.0928 24.9956 8.20251L23.5412 5.79534C19.6052 8.17369 16.9688 12.497 16.9688 17.4375H19.7812ZM24 6.65625C23.8341 6.65625 23.6394 6.5814 23.4982 6.4344C23.3786 6.30988 23.3509 6.19208 23.3443 6.14443C23.3364 6.08601 23.3404 5.91669 23.5412 5.79534L24.9956 8.20251C25.9391 7.63247 26.2425 6.58871 26.1315 5.76801C26.0164 4.91486 25.3436 3.84375 24 3.84375V6.65625ZM42.2048 24.4588C42.0834 24.6596 41.9139 24.6636 41.8556 24.6557C41.808 24.6491 41.6901 24.6214 41.5656 24.5018C41.4186 24.3606 41.3438 24.1659 41.3438 24H44.1562C44.1562 22.6564 43.0851 21.9836 42.2319 21.8685C41.4113 21.7575 40.3674 22.0609 39.7974 23.0044L42.2048 24.4588Z" fill="#343D3F"/>
</svg>
