<svg width="48" height="48" viewBox="0 0 48 48" fill="none" xmlns="http://www.w3.org/2000/svg">
<path d="M28 9C28 10.5913 28.6321 12.1174 29.7574 13.2426C30.8826 14.3679 32.4087 15 34 15C35.5913 15 37.1174 14.3679 38.2426 13.2426C39.3679 12.1174 40 10.5913 40 9C40 7.4087 39.3679 5.88258 38.2426 4.75736C37.1174 3.63214 35.5913 3 34 3C32.4087 3 30.8826 3.63214 29.7574 4.75736C28.6321 5.88258 28 7.4087 28 9Z" stroke="#343D3F" stroke-width="3" stroke-linejoin="round"/>
<path d="M20 9C20 9.78793 19.8448 10.5681 19.5433 11.2961C19.2417 12.0241 18.7998 12.6855 18.2426 13.2426C17.6855 13.7998 17.0241 14.2417 16.2961 14.5433C15.5681 14.8448 14.7879 15 14 15C13.2121 15 12.4319 14.8448 11.7039 14.5433C10.9759 14.2417 10.3145 13.7998 9.75736 13.2426C9.20021 12.6855 8.75825 12.0241 8.45672 11.2961C8.15519 10.5681 8 9.78793 8 9C8 8.21207 8.15519 7.43185 8.45672 6.7039C8.75825 5.97595 9.20021 5.31451 9.75736 4.75736C10.3145 4.20021 10.9759 3.75825 11.7039 3.45672C12.4319 3.15519 13.2121 3 14 3C14.7879 3 15.5681 3.15519 16.2961 3.45672C17.0241 3.75825 17.6855 4.20021 18.2426 4.75736C18.7998 5.31451 19.2417 5.97595 19.5433 6.7039C19.8448 7.43185 20 8.21207 20 9Z" stroke="#343D3F" stroke-width="3" stroke-linejoin="round"/>
<path d="M30 17C30 18.5913 29.3679 20.1174 28.2426 21.2426C27.1174 22.3679 25.5913 23 24 23C22.4087 23 20.8826 22.3679 19.7574 21.2426C18.6321 20.1174 18 18.5913 18 17C18 15.4087 18.6321 13.8826 19.7574 12.7574C20.8826 11.6321 22.4087 11 24 11C25.5913 11 27.1174 11.6321 28.2426 12.7574C29.3679 13.8826 30 15.4087 30 17Z" stroke="#343D3F" stroke-width="3" stroke-linejoin="round"/>
<path d="M18.3386 15.0078C14.7826 15.0247 12.0317 15.0777 8.88936 15.2437C6.44604 15.3727 4.43235 17.1936 3.99344 19.7048C3.60073 21.9518 3.18266 24.9158 3.00605 28.09C2.90628 29.8833 4.04899 31.4499 5.759 31.6584C6.29715 31.724 6.90781 31.7809 7.58756 31.8187L8.39635 41.5092C8.54241 43.2593 9.74297 44.7124 11.4194 44.8739C12.1798 44.9472 13.0721 44.9999 14.0654 44.9999C15.0891 44.9999 16.0054 44.9439 16.7807 44.8671C17.7552 44.7706 18.57 44.2363 19.1095 43.4603" stroke="#343D3F" stroke-width="3" stroke-linecap="round" stroke-linejoin="round"/>
<path d="M28.8906 43.4603C29.4301 44.2363 30.2449 44.7707 31.2193 44.8671C31.9946 44.9439 32.911 44.9999 33.9347 44.9999C34.928 44.9999 35.8203 44.9472 36.5807 44.8739C38.2571 44.7124 39.4577 43.2593 39.6037 41.5092L40.4125 31.8187C41.0923 31.7809 41.7029 31.724 42.2411 31.6584C43.9511 31.4499 45.0938 29.8833 44.994 28.09C44.8174 24.9158 44.3994 21.9518 44.0067 19.7048C43.5677 17.1936 41.554 15.3727 39.1107 15.2437C35.9684 15.0777 33.2174 15.0247 29.6615 15.0078" stroke="#343D3F" stroke-width="3" stroke-linecap="round" stroke-linejoin="round"/>
<path d="M28.8556 23.1174C30.8562 23.2247 32.4427 24.6753 32.7934 26.6479C33.116 28.4624 33.4948 30.9308 33.7716 33.7678C33.9259 35.3488 32.7667 36.7213 31.1809 36.8132C30.7228 36.8398 30.2089 36.8659 29.6391 36.8898L29.2423 42.2638C29.1444 43.5899 28.1835 44.6926 26.8617 44.8376C26.0429 44.9275 25.055 45 24.0002 45C22.9454 45 21.9576 44.9275 21.1388 44.8376C19.817 44.6926 18.8561 43.5899 18.7582 42.2638L18.3613 36.8898C17.7916 36.8659 17.2778 36.8398 16.8197 36.8132C15.2339 36.7214 14.0749 35.3488 14.2291 33.7679C14.5059 30.9307 14.8848 28.4623 15.2074 26.6477C15.5581 24.6752 17.1444 23.2247 19.145 23.1174C20.3802 23.0512 21.986 23 24 23C26.0142 23 27.6202 23.0512 28.8556 23.1174Z" stroke="#343D3F" stroke-width="3" stroke-linejoin="round"/>
</svg>
