<svg width="48" height="48" viewBox="0 0 48 48" fill="none" xmlns="http://www.w3.org/2000/svg">
<path d="M33.5396 33.939C35.2242 33.939 36.6525 34.5249 37.8243 35.6968C38.9962 36.8687 39.5821 38.297 39.5821 39.9815C39.5821 41.666 38.9962 43.0942 37.8243 44.2661C36.6525 45.438 35.2242 46.0239 33.5396 46.0239C32.2213 46.0239 31.0311 45.6303 29.9691 44.8429C28.9071 44.0555 28.193 43.0211 27.8267 41.7393H11.7319L9.47968 45.2C9.22337 45.6028 8.88467 45.8591 8.46349 45.969C8.04235 46.0789 7.64868 46.0056 7.28246 45.7493C6.87964 45.4563 6.61413 45.0992 6.48596 44.6781C6.35779 44.257 6.42187 43.845 6.67822 43.4422L16.6757 28.2811C14.2587 27.3656 12.2355 25.9649 10.6058 24.0789C8.97618 22.1928 7.90502 19.9865 7.39232 17.4596C7.28246 16.9469 7.40149 16.4892 7.74938 16.0863C8.09728 15.6835 8.52758 15.4821 9.04023 15.4821H34.9678C35.4805 15.4821 35.9017 15.6835 36.2312 16.0863C36.5608 16.4892 36.6707 16.9469 36.5608 17.4596C36.0482 19.9499 34.977 22.1288 33.3473 23.9965C31.7178 25.8641 29.7128 27.274 27.3324 28.2262L30.5184 33.17C30.0058 33.4263 29.5114 33.7193 29.0352 34.0489C28.5592 34.3785 28.1747 34.7447 27.8817 35.1475L23.9816 29.1051C23.7618 29.1784 23.4689 29.2149 23.1027 29.2149H20.9603C20.5942 29.2149 20.2829 29.1784 20.0265 29.1051L13.9291 38.4434H27.8267C28.193 37.125 28.8979 36.0448 29.9416 35.2025C30.9853 34.3601 32.1847 33.939 33.5396 33.939ZM33.5396 42.728C34.3086 42.728 34.9587 42.4625 35.4897 41.9315C36.0207 41.4006 36.2862 40.7505 36.2862 39.9815C36.2862 39.2124 36.0207 38.5624 35.4897 38.0314C34.9587 37.5005 34.3086 37.2349 33.5396 37.2349C32.7706 37.2349 32.1206 37.5005 31.5895 38.0314C31.0586 38.5624 30.793 39.2124 30.793 39.9815C30.793 40.7505 31.0586 41.4006 31.5895 41.9315C32.1206 42.4625 32.7706 42.728 33.5396 42.728ZM21.9491 25.9191C24.3295 25.9191 26.4993 25.2782 28.4585 23.9965C30.4177 22.7147 31.8734 20.9752 32.8255 18.778H11.1826C12.0615 20.9752 13.4806 22.7147 15.4397 23.9965C17.399 25.2782 19.5688 25.9191 21.9491 25.9191ZM16.1264 7.84665C15.4306 6.93113 14.9546 6.10716 14.6982 5.37474C14.4418 4.64232 14.3503 3.81835 14.4235 2.90283C14.4602 2.64648 14.5608 2.43591 14.7256 2.27112C14.8904 2.10632 15.101 2.02393 15.3573 2.02393C15.5771 2.02393 15.7602 2.11547 15.9066 2.29858C16.0532 2.48169 16.1264 2.6831 16.1264 2.90283C16.0898 3.81835 16.1997 4.59655 16.456 5.23741C16.7124 5.87827 17.1701 6.63816 17.8292 7.51706C18.4518 8.39596 18.9004 9.21081 19.1751 9.9615C19.4497 10.7122 19.5688 11.5636 19.5321 12.5158C19.5321 12.7721 19.4497 12.9827 19.2849 13.1475C19.1201 13.3123 18.9096 13.3947 18.6532 13.3947C18.4335 13.3947 18.2505 13.3032 18.1039 13.1201C17.9575 12.9369 17.9025 12.7355 17.9391 12.5158C18.0124 11.7468 17.9116 11.0143 17.637 10.3186C17.3623 9.6228 16.8588 8.79883 16.1264 7.84665ZM20.411 7.84665C19.7153 6.96775 19.23 6.16209 18.9553 5.42967C18.6807 4.69725 18.58 3.85497 18.6532 2.90283C18.6899 2.64648 18.7905 2.43591 18.9553 2.27112C19.1201 2.10632 19.3307 2.02393 19.587 2.02393C19.8068 2.02393 19.9899 2.11547 20.1364 2.29858C20.2829 2.48169 20.3378 2.6831 20.3012 2.90283C20.228 3.63525 20.3286 4.34936 20.6033 5.04515C20.8779 5.74094 21.3632 6.56491 22.059 7.51706C22.6815 8.35934 23.1301 9.165 23.4048 9.93404C23.6794 10.7031 23.7985 11.5636 23.7618 12.5158C23.7618 12.7721 23.6794 12.9827 23.5146 13.1475C23.3498 13.3123 23.1393 13.3947 22.8829 13.3947C22.6632 13.3947 22.4802 13.3123 22.3336 13.1475C22.1872 12.9827 22.1139 12.7721 22.1139 12.5158C22.1506 11.4905 22.0498 10.6665 21.8118 10.0439C21.5738 9.42131 21.1069 8.68896 20.411 7.84665ZM24.6407 7.84665C23.9084 6.8945 23.4048 6.05223 23.1301 5.31981C22.8555 4.58738 22.7548 3.78173 22.828 2.90283C22.8647 2.64648 22.9653 2.43591 23.1301 2.27112C23.2949 2.10632 23.5055 2.02393 23.7618 2.02393C23.9816 2.02393 24.1647 2.11547 24.3111 2.29858C24.4577 2.48169 24.5126 2.6831 24.4759 2.90283C24.4028 3.63525 24.5034 4.34936 24.7781 5.04515C25.0527 5.74094 25.5563 6.56491 26.2887 7.51706C26.9113 8.35934 27.3598 9.165 27.6345 9.93404C27.9091 10.7031 28.0099 11.5636 27.9366 12.5158C27.9366 12.7721 27.8542 12.9827 27.6894 13.1475C27.5246 13.3123 27.3141 13.3947 27.0577 13.3947C26.838 13.3947 26.655 13.3032 26.5084 13.1201C26.3619 12.9369 26.2887 12.7172 26.2887 12.4609C26.3619 11.5087 26.2704 10.7122 26.014 10.0714C25.7577 9.43054 25.2999 8.68896 24.6407 7.84665Z" fill="#343D3F"/>
</svg>
