<svg width="48" height="48" viewBox="0 0 48 48" fill="none" xmlns="http://www.w3.org/2000/svg">
<path d="M7 38C8.368 32.325 15.458 28 24 28C32.542 28 39.632 32.325 41 38" stroke="#343D3F" stroke-width="3" stroke-linecap="round" stroke-linejoin="round"/>
<path d="M35 11C39.771 11 44 14.907 44 20" stroke="#343D3F" stroke-width="3" stroke-linecap="round" stroke-linejoin="round"/>
<path d="M35.14 21C37.712 18.227 37.571 13.773 35 11" stroke="#343D3F" stroke-width="3" stroke-linecap="round" stroke-linejoin="round"/>
<path d="M33.3901 2.64795C36.2281 4.28595 36.6381 8.16195 35.0001 10.9999" stroke="#343D3F" stroke-width="3" stroke-linecap="round" stroke-linejoin="round"/>
<path d="M35 10.9998C31.995 6.47983 26.644 5.60383 23 9.33083" stroke="#343D3F" stroke-width="3" stroke-linecap="round" stroke-linejoin="round"/>
<path d="M19 28C19 18.611 26.611 11 36 11C30.993 11 26.933 18.611 26.933 28" stroke="#343D3F" stroke-width="3" stroke-linecap="round" stroke-linejoin="round"/>
<path d="M3 45C4.89 45 6.78 44.444 8.42 43.33C8.88836 43.0192 9.43794 42.8535 10 42.8535C10.5621 42.8535 11.1116 43.0192 11.58 43.33C13.1784 44.4174 15.0668 44.9992 17 45C18.89 45 20.78 44.444 22.42 43.33C22.8884 43.0192 23.4379 42.8535 24 42.8535C24.5621 42.8535 25.1116 43.0192 25.58 43.33C27.1784 44.4174 29.0668 44.9992 31 45C32.89 45 34.78 44.444 36.42 43.33C36.8884 43.0192 37.4379 42.8535 38 42.8535C38.5621 42.8535 39.1116 43.0192 39.58 43.33C41.1784 44.4174 43.0668 44.9992 45 45" stroke="#343D3F" stroke-width="3" stroke-linecap="round" stroke-linejoin="round"/>
</svg>
