<svg width="48" height="48" viewBox="0 0 48 48" fill="none" xmlns="http://www.w3.org/2000/svg">
<g clip-path="url(#clip0_2592_73)">
<path d="M2.152 42.356C2.262 44.078 3.382 45.413 5.093 45.646C6.493 45.837 8.55 46 11.5 46C14.45 46 16.508 45.837 17.907 45.646C19.617 45.413 20.739 44.078 20.848 42.356C20.932 41.047 21 39.163 21 36.5C21 33.837 20.932 31.953 20.848 30.644C20.738 28.922 19.618 27.587 17.907 27.354C16.507 27.163 14.45 27 11.5 27C8.55 27 6.493 27.163 5.093 27.354C3.383 27.587 2.261 28.922 2.152 30.644C2.068 31.953 2 33.837 2 36.5C2 39.163 2.068 41.047 2.152 42.356Z" stroke="#343D3F" stroke-width="3" stroke-linejoin="round"/>
<path d="M2.152 5.644C2.262 3.922 3.382 2.587 5.093 2.354C6.493 2.163 8.55 2 11.5 2C14.45 2 16.508 2.163 17.907 2.354C19.617 2.587 20.739 3.922 20.848 5.644C20.932 6.953 21 8.837 21 11.5C21 14.163 20.932 16.047 20.848 17.356C20.738 19.078 19.618 20.413 17.907 20.646C16.507 20.837 14.45 21 11.5 21C8.55 21 6.493 20.837 5.093 20.646C3.383 20.413 2.261 19.078 2.152 17.356C2.068 16.047 2 14.163 2 11.5C2 8.837 2.068 6.953 2.152 5.644Z" stroke="#343D3F" stroke-width="3" stroke-linejoin="round"/>
<path d="M42.356 45.848C44.078 45.738 45.413 44.618 45.646 42.907C45.837 41.507 46 39.45 46 36.5C46 33.55 45.837 31.492 45.646 30.093C45.413 28.383 44.078 27.261 42.356 27.152C41.047 27.068 39.163 27 36.5 27C33.837 27 31.953 27.068 30.644 27.152C28.922 27.262 27.587 28.382 27.354 30.093C27.163 31.493 27 33.55 27 36.5C27 39.45 27.163 41.508 27.354 42.907C27.587 44.617 28.922 45.739 30.644 45.848C31.953 45.932 33.837 46 36.5 46C39.163 46 41.047 45.932 42.356 45.848Z" stroke="#343D3F" stroke-width="3" stroke-linejoin="round"/>
<path d="M35.623 2.60398C35.7092 2.44671 35.836 2.3155 35.9903 2.2241C36.1446 2.1327 36.3206 2.08447 36.5 2.08447C36.6793 2.08447 36.8554 2.1327 37.0096 2.2241C37.1639 2.3155 37.2908 2.44671 37.377 2.60398L39.369 6.24598C39.9196 7.25268 40.7473 8.08039 41.754 8.63098L45.396 10.623C45.5533 10.7092 45.6845 10.836 45.7759 10.9903C45.8673 11.1446 45.9155 11.3206 45.9155 11.5C45.9155 11.6793 45.8673 11.8553 45.7759 12.0096C45.6845 12.1639 45.5533 12.2908 45.396 12.377L41.754 14.369C40.7473 14.9196 39.9196 15.7473 39.369 16.754L37.377 20.396C37.2908 20.5533 37.1639 20.6845 37.0096 20.7759C36.8554 20.8673 36.6793 20.9155 36.5 20.9155C36.3206 20.9155 36.1446 20.8673 35.9903 20.7759C35.836 20.6845 35.7092 20.5533 35.623 20.396L33.631 16.754C33.0804 15.7473 32.2527 14.9196 31.246 14.369L27.604 12.377C27.4467 12.2908 27.3155 12.1639 27.2241 12.0096C27.1327 11.8553 27.0845 11.6793 27.0845 11.5C27.0845 11.3206 27.1327 11.1446 27.2241 10.9903C27.3155 10.836 27.4467 10.7092 27.604 10.623L31.246 8.63098C32.2527 8.08039 33.0804 7.25268 33.631 6.24598L35.623 2.60398Z" stroke="#343D3F" stroke-width="3"/>
</g>
<defs>
<clipPath id="clip0_2592_73">
<rect width="48" height="48" fill="white"/>
</clipPath>
</defs>
</svg>
