<svg width="48" height="48" viewBox="0 0 48 48" fill="none" xmlns="http://www.w3.org/2000/svg">
<path d="M33.1798 32.146C32.8048 33.285 31.1948 33.285 30.8198 32.146L28.3018 24.49C28.2409 24.3052 28.1376 24.1373 28 23.9997C27.8625 23.8622 27.6945 23.7588 27.5098 23.698L19.8538 21.18C18.7148 20.805 18.7148 19.195 19.8538 18.82L27.5098 16.302C27.6947 16.2414 27.8627 16.1381 28.0003 16.0005C28.1379 15.8629 28.2411 15.6949 28.3018 15.51L30.8198 7.85401C31.1948 6.71501 32.8048 6.71501 33.1798 7.85401L35.6978 15.51C35.8208 15.885 36.1148 16.179 36.4898 16.302L44.1458 18.82C45.2848 19.195 45.2848 20.805 44.1458 21.18L36.4898 23.698C36.305 23.7588 36.1371 23.8622 35.9995 23.9997C35.8619 24.1373 35.7586 24.3052 35.6978 24.49L33.1798 32.146Z" stroke="#343D3F" stroke-width="3" stroke-linecap="round" stroke-linejoin="round"/>
<path d="M16.97 44.298C16.662 45.234 15.338 45.234 15.03 44.298L13.13 38.52C13.0801 38.3683 12.9953 38.2305 12.8824 38.1176C12.7695 38.0047 12.6317 37.9199 12.48 37.87L6.702 35.97C5.766 35.662 5.766 34.338 6.702 34.03L12.48 32.13C12.6317 32.0801 12.7695 31.9953 12.8824 31.8824C12.9953 31.7695 13.0801 31.6317 13.13 31.48L15.03 25.702C15.338 24.766 16.662 24.766 16.97 25.702L18.87 31.48C18.971 31.788 19.212 32.029 19.52 32.13L25.298 34.03C26.234 34.338 26.234 35.662 25.298 35.97L19.52 37.87C19.3683 37.9199 19.2305 38.0047 19.1176 38.1176C19.0047 38.2305 18.9199 38.3683 18.87 38.52L16.97 44.298Z" stroke="#343D3F" stroke-width="3" stroke-linecap="round" stroke-linejoin="round"/>
<path d="M12.8728 20.369C12.5958 21.21 11.4038 21.21 11.1278 20.369L9.41776 15.169C9.3728 15.0323 9.29635 14.908 9.19457 14.8062C9.09278 14.7044 8.96851 14.628 8.83176 14.583L3.63176 12.873C2.78876 12.596 2.78876 11.404 3.63176 11.128L8.83176 9.41801C8.96836 9.37298 9.09247 9.2965 9.19408 9.19471C9.2957 9.09292 9.37197 8.96868 9.41676 8.83201L11.1268 3.63201C11.4038 2.78901 12.5958 2.78901 12.8718 3.63201L14.5818 8.83201C14.6269 8.96857 14.7034 9.09264 14.8051 9.19424C14.9069 9.29585 15.0311 9.37215 15.1678 9.41701L20.3678 11.127C21.2108 11.404 21.2108 12.596 20.3678 12.872L15.1678 14.582C15.0312 14.6271 14.9071 14.7036 14.8055 14.8054C14.7039 14.9072 14.6276 15.0314 14.5828 15.168L12.8728 20.369Z" stroke="#343D3F" stroke-width="3" stroke-linecap="round" stroke-linejoin="round"/>
</svg>
