<svg width="48" height="48" viewBox="0 0 48 48" fill="none" xmlns="http://www.w3.org/2000/svg">
<path d="M3.687 7.802C3.887 6.072 4.937 4.644 6.637 4.268C9.289 3.681 14.43 3 24 3C33.57 3 38.71 3.681 41.363 4.268C43.063 4.644 44.113 6.072 44.313 7.802C44.617 10.418 45 14.726 45 19.8C45 29.28 39.997 38.15 31.568 42.488C28.752 43.938 26.004 45 24 45C21.996 45 19.248 43.937 16.432 42.488C8.003 38.15 3 29.28 3 19.8C3 14.726 3.383 10.418 3.687 7.802Z" stroke="#343D3F" stroke-width="3" stroke-linecap="round" stroke-linejoin="round"/>
<path d="M11.34 13.887C11.502 12.261 12.487 10.934 14.095 10.644C15.905 10.317 18.961 10 24 10C29.039 10 32.094 10.317 33.905 10.644C35.513 10.934 36.498 12.261 36.659 13.887C36.8848 16.1844 36.9986 18.4915 37 20.8C37 26.114 34.42 31.01 30.098 34.102C27.894 35.678 25.576 37 24 37C22.424 37 20.106 35.678 17.902 34.102C13.58 31.01 11 26.114 11 20.8C11 18.012 11.173 15.584 11.34 13.887Z" stroke="#343D3F" stroke-width="3" stroke-linecap="round" stroke-linejoin="round"/>
</svg>
