<svg width="48" height="48" viewBox="0 0 48 48" fill="none" xmlns="http://www.w3.org/2000/svg">
<path d="M20 19C20 20.0609 20.4214 21.0783 21.1716 21.8284C21.9217 22.5786 22.9391 23 24 23C25.0609 23 26.0783 22.5786 26.8284 21.8284C27.5786 21.0783 28 20.0609 28 19C28 17.9391 27.5786 16.9217 26.8284 16.1716C26.0783 15.4214 25.0609 15 24 15C22.9391 15 21.9217 15.4214 21.1716 16.1716C20.4214 16.9217 20 17.9391 20 19Z" stroke="#343D3F" stroke-width="3" stroke-linecap="round" stroke-linejoin="round"/>
<path d="M13.1319 16.0872C11.7819 19.4072 11.0039 22.8812 10.5719 25.4002C10.1639 27.7842 10.6789 30.2572 12.3419 32.0132C13.5149 33.2532 15.1089 34.5782 17.0289 35.3052C18.2339 35.7612 19.4569 35.0152 19.8669 33.7952C20.3039 32.4942 20.9289 30.4702 21.7369 27.4552L22.9669 22.8652" stroke="#343D3F" stroke-width="3" stroke-linecap="round" stroke-linejoin="round"/>
<path d="M27.865 20.0352L32.451 21.2652C35.466 22.0722 37.491 22.6972 38.791 23.1342C40.012 23.5442 40.758 24.7672 40.301 25.9722C39.575 27.8922 38.251 29.4862 37.01 30.6602C35.253 32.3222 32.78 32.8372 30.397 32.4292C27.877 31.9972 24.404 31.2192 21.084 29.8692" stroke="#343D3F" stroke-width="3" stroke-linecap="round" stroke-linejoin="round"/>
<path d="M25.0366 15.1361L26.2666 10.5461C27.0746 7.5301 27.6996 5.5061 28.1366 4.2061C28.5466 2.9841 29.7696 2.2391 30.9746 2.6951C32.8946 3.4221 34.4886 4.7461 35.6626 5.9871C37.3246 7.7431 37.8396 10.2171 37.4316 12.6001C36.9996 15.1191 36.2216 18.5921 34.8716 21.9131" stroke="#343D3F" stroke-width="3" stroke-linecap="round" stroke-linejoin="round"/>
<path d="M20.1358 17.9642L15.5448 16.7342C12.5298 15.9262 10.5048 15.3012 9.20476 14.8642C7.98376 14.4542 7.23776 13.2312 7.69476 12.0262C8.42076 10.1062 9.74476 8.51222 10.9858 7.33822C12.7428 5.67622 15.2158 5.16122 17.5988 5.57022C20.1188 6.00122 23.5918 6.77922 26.9128 8.12922" stroke="#343D3F" stroke-width="3" stroke-linecap="round" stroke-linejoin="round"/>
<path d="M24 31V46" stroke="#343D3F" stroke-width="3" stroke-linecap="round" stroke-linejoin="round"/>
</svg>
