<svg width="48" height="48" viewBox="0 0 48 48" fill="none" xmlns="http://www.w3.org/2000/svg">
<path d="M24 3C18.4305 3 13.089 5.21249 9.15076 9.15076C5.21249 13.089 3 18.4305 3 24C3 29.5695 5.21249 34.911 9.15076 38.8492C13.089 42.7875 18.4305 45 24 45C29.5695 45 34.911 42.7875 38.8492 38.8492C42.7875 34.911 45 29.5695 45 24C45 18.4305 42.7875 13.089 38.8492 9.15076C34.911 5.21249 29.5695 3 24 3Z" stroke="#343D3F" stroke-width="3" stroke-linecap="round" stroke-linejoin="round"/>
<path d="M22.2239 12.423C22.9709 10.984 25.0289 10.984 25.7749 12.423L28.5849 17.841L34.5449 19.015C36.0669 19.315 36.6829 21.16 35.6449 22.315L31.4199 27.013L32.1959 33.301C32.3909 34.885 30.7459 36.048 29.3179 35.336L23.9999 32.68L18.6819 35.335C17.2549 36.047 15.6089 34.884 15.8039 33.3L16.5799 27.012L12.3549 22.313C11.3169 21.159 11.9329 19.313 13.4549 19.013L19.4149 17.84L22.2249 12.422L22.2239 12.423Z" stroke="#343D3F" stroke-width="3" stroke-linecap="round" stroke-linejoin="round"/>
</svg>
